<svg id="Layer_1" data-name="Layer 1" xmlns="http://www.w3.org/2000/svg" viewBox="0 0 110.4 18.1"><defs><style>.cls-1{fill:#222127;}</style></defs><path class="cls-1" d="M14.4,16.1h-3V8.4L7.9,14H7.6L4.2,8.4v7.7h-3V2.8h3L7.8,8.7l3.6-5.9h3Z" transform="translate(-1.2 -0.2)"/><path class="cls-1" d="M19.9,9.5A6.86,6.86,0,0,1,32.5,5.7L29.9,7.2a3.46,3.46,0,0,0-3.1-1.6,3.73,3.73,0,0,0-3.9,3.9,3.67,3.67,0,0,0,3.9,3.9,3.58,3.58,0,0,0,3.1-1.6l2.6,1.5a6.55,6.55,0,0,1-5.7,3.1A6.73,6.73,0,0,1,19.9,9.5Z" transform="translate(-1.2 -0.2)"/><path class="cls-1" d="M50.6,9.8a6.19,6.19,0,0,1-6.5,6.5,6.92,6.92,0,0,1-7.2-6.9,6.85,6.85,0,0,1,6.9-6.9,6.75,6.75,0,0,1,5.8,3L47,7.1a3.61,3.61,0,0,0-3.2-1.6,3.81,3.81,0,0,0-3.9,4c0,2.3,1.6,3.9,4.2,3.9a3.36,3.36,0,0,0,3.4-2H44V8.7h6.6Z" transform="translate(-1.2 -0.2)"/><path class="cls-1" d="M69.1,2.3v5H68v-2H66.4v2H65.2v-5h1.2V4.2H68V2.3Z" transform="translate(-1.2 -0.2)"/><path class="cls-1" d="M73.3,3.8V7.4H72.2V7a1.16,1.16,0,0,1-1,.4,1.32,1.32,0,0,1-1.3-1.5V3.8H71v2a.67.67,0,0,0,.6.7.63.63,0,0,0,.7-.7v-2Z" transform="translate(-1.2 -0.2)"/><path class="cls-1" d="M79.5,5.2V7.4H78.4V5.3c0-.4-.2-.6-.5-.6s-.6.3-.6.7v2H76.2V5.3c0-.4-.2-.6-.5-.6s-.6.3-.6.7v2H74V3.8h1.1v.3a1.33,1.33,0,0,1,1-.4,1.05,1.05,0,0,1,.9.5,1.1,1.1,0,0,1,1-.5A1.37,1.37,0,0,1,79.5,5.2Z" transform="translate(-1.2 -0.2)"/><path class="cls-1" d="M83.9,3.8V7.4H82.8V7a1.25,1.25,0,0,1-1.1.4A1.8,1.8,0,0,1,80,5.5a1.8,1.8,0,0,1,1.7-1.9,1.82,1.82,0,0,1,1.1.4V3.8Zm-1,1.8a.9.9,0,0,0-.9-.9c-.5,0-.8.3-.8.9a.84.84,0,0,0,.9.9A.82.82,0,0,0,82.9,5.6Z" transform="translate(-1.2 -0.2)"/><path class="cls-1" d="M88.2,5.2V7.4H87.1v-2a.67.67,0,0,0-.6-.7.63.63,0,0,0-.7.7v2H84.7V3.8h1.1v.3a1.16,1.16,0,0,1,1-.4A1.34,1.34,0,0,1,88.2,5.2Z" transform="translate(-1.2 -0.2)"/><path class="cls-1" d="M68.4,14.9V16H65.2V11h3.1v1.1h-2v.8h1.8V14H66.3v.9Z" transform="translate(-1.2 -0.2)"/><path class="cls-1" d="M72.5,13.8V16H71.4V14a.67.67,0,0,0-.6-.7.63.63,0,0,0-.7.7v2H69V12.4h1.1v.3a1.16,1.16,0,0,1,1-.4A1.39,1.39,0,0,1,72.5,13.8Z" transform="translate(-1.2 -0.2)"/><path class="cls-1" d="M76.9,12.4v3.4A1.68,1.68,0,0,1,75,17.5a1.85,1.85,0,0,1-1.7-.9l.9-.5c.1.3.3.5.8.5a.74.74,0,0,0,.8-.8v-.3a1.23,1.23,0,0,1-1,.5A1.79,1.79,0,0,1,73,14.2a1.73,1.73,0,0,1,1.8-1.8,1.1,1.1,0,0,1,1,.5v-.4h1.1Zm-1.1,1.7a.91.91,0,1,0-.9.8A.73.73,0,0,0,75.8,14.1Z" transform="translate(-1.2 -0.2)"/><path class="cls-1" d="M81.4,12.4V16H80.3v-.3a1.25,1.25,0,0,1-1.1.4,1.8,1.8,0,0,1-1.7-1.9,1.8,1.8,0,0,1,1.7-1.9,1.82,1.82,0,0,1,1.1.4v-.3Zm-1.1,1.8a.9.9,0,0,0-.9-.9.9.9,0,1,0,0,1.8A.9.9,0,0,0,80.3,14.2Z" transform="translate(-1.2 -0.2)"/><path class="cls-1" d="M85.8,12.4v3.4a1.68,1.68,0,0,1-1.9,1.7,1.85,1.85,0,0,1-1.7-.9l.9-.5c.1.3.3.5.8.5a.74.74,0,0,0,.8-.8v-.3a1.23,1.23,0,0,1-1,.5,1.79,1.79,0,0,1-1.8-1.8,1.73,1.73,0,0,1,1.8-1.8,1.1,1.1,0,0,1,1,.5v-.4h1.1Zm-1,1.7a.91.91,0,1,0-.9.8A.77.77,0,0,0,84.8,14.1Z" transform="translate(-1.2 -0.2)"/><path class="cls-1" d="M88.5,15.1a.91.91,0,0,0,.7-.3l.9.5a2.06,2.06,0,0,1-3.6-1.2,1.84,1.84,0,0,1,1.9-1.9,1.82,1.82,0,0,1,1.8,1.9v.4H87.6C87.7,15,88.1,15.1,88.5,15.1Zm.6-1.3a.83.83,0,0,0-1.6,0Z" transform="translate(-1.2 -0.2)"/><path class="cls-1" d="M96.2,13.8V16H95.1V13.9c0-.4-.2-.6-.5-.6s-.6.3-.6.7v2H92.9V13.9c0-.4-.2-.6-.5-.6s-.6.3-.6.7v2H90.7V12.4h1.1v.3a1.33,1.33,0,0,1,1-.4,1.05,1.05,0,0,1,.9.5,1.1,1.1,0,0,1,1-.5A1.42,1.42,0,0,1,96.2,13.8Z" transform="translate(-1.2 -0.2)"/><path class="cls-1" d="M98.7,15.1a.91.91,0,0,0,.7-.3l.9.5a2.06,2.06,0,0,1-3.6-1.2,1.84,1.84,0,0,1,1.9-1.9,1.82,1.82,0,0,1,1.8,1.9v.4H97.8A.9.9,0,0,0,98.7,15.1Zm.7-1.3a.83.83,0,0,0-1.6,0Z" transform="translate(-1.2 -0.2)"/><path class="cls-1" d="M104.5,13.8V16h-1.1V14a.67.67,0,0,0-.6-.7.63.63,0,0,0-.7.7v2H101V12.4h1.1v.3a1.16,1.16,0,0,1,1-.4A1.34,1.34,0,0,1,104.5,13.8Z" transform="translate(-1.2 -0.2)"/><path class="cls-1" d="M106.6,13.4v1.3c0,.3.3.3.7.3v1c-1.4.1-1.8-.3-1.8-1.3V13.4H105v-1h.6v-.7l1.1-.3v1h.7v1Z" transform="translate(-1.2 -0.2)"/><rect class="cls-1" x="55.9" width="0.2" height="18.1"/><path class="cls-1" d="M111.2,14.8c.1.1.2.1.3.3s.1.2.1.4a.6.6,0,0,1-.1.4c-.1.1-.1.2-.3.3a.85.85,0,0,1-.8,0c-.1-.1-.2-.1-.3-.3s-.1-.2-.1-.4a.76.76,0,0,1,.1-.4c.1-.1.1-.2.3-.3s.2-.1.4-.1S111.1,14.8,111.2,14.8Zm-.1,1.2c.1-.1.2-.1.2-.2a.5.5,0,0,0,0-.6c-.1-.1-.1-.2-.2-.2a.5.5,0,0,0-.6,0c-.1.1-.2.1-.2.2a.5.5,0,0,0,0,.6c.1.1.1.2.2.2a.37.37,0,0,0,.3.1C110.9,16.1,111,16,111.1,16Zm0-.6-.1.1.2.3h-.1l-.2-.3h-.2v.3h-.1V15h.3c.1,0,.2,0,.2.1s.1.1.1.2S111.2,15.4,111.1,15.4Zm-.1,0,.1-.1c0-.1,0-.1-.1-.1h-.4v.4h.2C110.9,15.5,111,15.5,111,15.4Z" transform="translate(-1.2 -0.2)"/></svg>